<mxfile host="app.diagrams.net" modified="2023-08-07T05:18:05.981Z" agent="Mozilla/5.0 (Windows NT 10.0; Win64; x64) AppleWebKit/537.36 (KHTML, like Gecko) Chrome/115.0.0.0 Safari/537.36 Edg/115.0.1901.188" etag="nvgCdGuS2itpjyRV9Mvd" version="21.6.6" type="device">
  <diagram name="Page-1" id="CrRebWP967V_297x8Cy9">
    <mxGraphModel dx="1100" dy="595" grid="0" gridSize="10" guides="1" tooltips="1" connect="1" arrows="1" fold="1" page="0" pageScale="1" pageWidth="1169" pageHeight="827" math="0" shadow="0">
      <root>
        <mxCell id="0" />
        <mxCell id="1" parent="0" />
        <mxCell id="_r5Un5eJ1sWFMNbk5FbR-1" value="USER" style="shape=module;align=left;spacingLeft=20;align=center;verticalAlign=top;whiteSpace=wrap;html=1;" vertex="1" parent="1">
          <mxGeometry x="84" y="202" width="100" height="50" as="geometry" />
        </mxCell>
        <mxCell id="_r5Un5eJ1sWFMNbk5FbR-2" value="Blog" style="shape=module;align=left;spacingLeft=20;align=center;verticalAlign=top;whiteSpace=wrap;html=1;" vertex="1" parent="1">
          <mxGeometry x="288" y="88" width="100" height="50" as="geometry" />
        </mxCell>
        <mxCell id="_r5Un5eJ1sWFMNbk5FbR-3" value="Comment" style="shape=module;align=left;spacingLeft=20;align=center;verticalAlign=top;whiteSpace=wrap;html=1;" vertex="1" parent="1">
          <mxGeometry x="283" y="195" width="100" height="50" as="geometry" />
        </mxCell>
        <mxCell id="_r5Un5eJ1sWFMNbk5FbR-4" value="Profile" style="shape=module;align=left;spacingLeft=20;align=center;verticalAlign=top;whiteSpace=wrap;html=1;" vertex="1" parent="1">
          <mxGeometry x="288" y="307" width="100" height="50" as="geometry" />
        </mxCell>
        <mxCell id="_r5Un5eJ1sWFMNbk5FbR-5" value="" style="endArrow=classic;html=1;rounded=0;exitX=1;exitY=0.25;exitDx=0;exitDy=0;entryX=0;entryY=0;entryDx=0;entryDy=35;entryPerimeter=0;" edge="1" parent="1" source="_r5Un5eJ1sWFMNbk5FbR-1" target="_r5Un5eJ1sWFMNbk5FbR-2">
          <mxGeometry relative="1" as="geometry">
            <mxPoint x="401" y="249" as="sourcePoint" />
            <mxPoint x="501" y="249" as="targetPoint" />
          </mxGeometry>
        </mxCell>
        <mxCell id="_r5Un5eJ1sWFMNbk5FbR-6" value="Manage" style="edgeLabel;resizable=0;html=1;align=center;verticalAlign=middle;" connectable="0" vertex="1" parent="_r5Un5eJ1sWFMNbk5FbR-5">
          <mxGeometry relative="1" as="geometry" />
        </mxCell>
        <mxCell id="_r5Un5eJ1sWFMNbk5FbR-7" value="vs" style="endArrow=classic;html=1;rounded=0;exitX=1;exitY=0.75;exitDx=0;exitDy=0;entryX=0;entryY=0;entryDx=0;entryDy=35;entryPerimeter=0;" edge="1" parent="1" source="_r5Un5eJ1sWFMNbk5FbR-1" target="_r5Un5eJ1sWFMNbk5FbR-4">
          <mxGeometry relative="1" as="geometry">
            <mxPoint x="194" y="225" as="sourcePoint" />
            <mxPoint x="298" y="133" as="targetPoint" />
          </mxGeometry>
        </mxCell>
        <mxCell id="_r5Un5eJ1sWFMNbk5FbR-8" value="modify" style="edgeLabel;resizable=0;html=1;align=center;verticalAlign=middle;" connectable="0" vertex="1" parent="_r5Un5eJ1sWFMNbk5FbR-7">
          <mxGeometry relative="1" as="geometry" />
        </mxCell>
        <mxCell id="_r5Un5eJ1sWFMNbk5FbR-9" value="" style="endArrow=classic;html=1;rounded=0;exitX=1;exitY=0.5;exitDx=0;exitDy=0;entryX=0.07;entryY=0.48;entryDx=0;entryDy=0;entryPerimeter=0;" edge="1" parent="1" source="_r5Un5eJ1sWFMNbk5FbR-1" target="_r5Un5eJ1sWFMNbk5FbR-3">
          <mxGeometry relative="1" as="geometry">
            <mxPoint x="204" y="235" as="sourcePoint" />
            <mxPoint x="308" y="143" as="targetPoint" />
          </mxGeometry>
        </mxCell>
        <mxCell id="_r5Un5eJ1sWFMNbk5FbR-15" value="interact" style="edgeLabel;html=1;align=center;verticalAlign=middle;resizable=0;points=[];" vertex="1" connectable="0" parent="_r5Un5eJ1sWFMNbk5FbR-9">
          <mxGeometry x="-0.0258" y="-5" relative="1" as="geometry">
            <mxPoint x="-3" y="-8" as="offset" />
          </mxGeometry>
        </mxCell>
        <mxCell id="_r5Un5eJ1sWFMNbk5FbR-17" value="Cloud" style="shape=module;align=left;spacingLeft=20;align=center;verticalAlign=top;whiteSpace=wrap;html=1;" vertex="1" parent="1">
          <mxGeometry x="482" y="189" width="100" height="50" as="geometry" />
        </mxCell>
        <mxCell id="_r5Un5eJ1sWFMNbk5FbR-18" value="" style="endArrow=classic;html=1;rounded=0;exitX=1;exitY=0.75;exitDx=0;exitDy=0;entryX=0;entryY=0;entryDx=0;entryDy=15;entryPerimeter=0;" edge="1" parent="1" source="_r5Un5eJ1sWFMNbk5FbR-2" target="_r5Un5eJ1sWFMNbk5FbR-17">
          <mxGeometry relative="1" as="geometry">
            <mxPoint x="194" y="225" as="sourcePoint" />
            <mxPoint x="298" y="133" as="targetPoint" />
          </mxGeometry>
        </mxCell>
        <mxCell id="_r5Un5eJ1sWFMNbk5FbR-19" value="Reside" style="edgeLabel;resizable=0;html=1;align=center;verticalAlign=middle;" connectable="0" vertex="1" parent="_r5Un5eJ1sWFMNbk5FbR-18">
          <mxGeometry relative="1" as="geometry" />
        </mxCell>
        <mxCell id="_r5Un5eJ1sWFMNbk5FbR-20" value="" style="endArrow=classic;html=1;rounded=0;exitX=1;exitY=0.5;exitDx=0;exitDy=0;" edge="1" parent="1" source="_r5Un5eJ1sWFMNbk5FbR-4">
          <mxGeometry relative="1" as="geometry">
            <mxPoint x="204" y="235" as="sourcePoint" />
            <mxPoint x="485" y="221" as="targetPoint" />
          </mxGeometry>
        </mxCell>
        <mxCell id="_r5Un5eJ1sWFMNbk5FbR-21" value="Reside" style="edgeLabel;resizable=0;html=1;align=center;verticalAlign=middle;" connectable="0" vertex="1" parent="_r5Un5eJ1sWFMNbk5FbR-20">
          <mxGeometry relative="1" as="geometry" />
        </mxCell>
        <mxCell id="_r5Un5eJ1sWFMNbk5FbR-22" value="" style="endArrow=classic;html=1;rounded=0;exitX=1;exitY=0.5;exitDx=0;exitDy=0;entryX=0.02;entryY=0.5;entryDx=0;entryDy=0;entryPerimeter=0;" edge="1" parent="1" source="_r5Un5eJ1sWFMNbk5FbR-3" target="_r5Un5eJ1sWFMNbk5FbR-17">
          <mxGeometry relative="1" as="geometry">
            <mxPoint x="194" y="237" as="sourcePoint" />
            <mxPoint x="300" y="229" as="targetPoint" />
          </mxGeometry>
        </mxCell>
        <mxCell id="_r5Un5eJ1sWFMNbk5FbR-23" value="Reside" style="edgeLabel;html=1;align=center;verticalAlign=middle;resizable=0;points=[];" vertex="1" connectable="0" parent="_r5Un5eJ1sWFMNbk5FbR-22">
          <mxGeometry x="-0.0258" y="-5" relative="1" as="geometry">
            <mxPoint x="-3" y="-8" as="offset" />
          </mxGeometry>
        </mxCell>
        <mxCell id="_r5Un5eJ1sWFMNbk5FbR-24" value="" style="shape=folder;fontStyle=1;spacingTop=10;tabWidth=40;tabHeight=14;tabPosition=left;html=1;whiteSpace=wrap;" vertex="1" parent="1">
          <mxGeometry x="654" y="159" width="156" height="100" as="geometry" />
        </mxCell>
        <mxCell id="_r5Un5eJ1sWFMNbk5FbR-25" value="Storage" style="shape=module;align=left;spacingLeft=20;align=center;verticalAlign=top;whiteSpace=wrap;html=1;" vertex="1" parent="1">
          <mxGeometry x="676" y="189" width="100" height="50" as="geometry" />
        </mxCell>
        <mxCell id="_r5Un5eJ1sWFMNbk5FbR-26" value="" style="endArrow=classic;html=1;rounded=0;" edge="1" parent="1">
          <mxGeometry width="50" height="50" relative="1" as="geometry">
            <mxPoint x="584" y="214" as="sourcePoint" />
            <mxPoint x="655" y="214" as="targetPoint" />
          </mxGeometry>
        </mxCell>
      </root>
    </mxGraphModel>
  </diagram>
</mxfile>
